<svg width="53" height="50" viewBox="0 0 53 50" fill="none" xmlns="http://www.w3.org/2000/svg">
<rect width="53" height="50" fill="white"/>
<path d="M26.773 14.75C26.773 14.75 30.352 11.455 33.81 12.35C33.81 12.35 31.593 12.431 30.292 14.546C30.292 14.546 28.157 17.088 26.774 16.275C26.774 16.275 25.959 15.279 26.773 14.75Z" fill="#39B54A"/>
<path d="M32.358 11.968L26.324 14.243C26.324 14.243 23.359 13.001 27.333 11.247C27.333 11.247 32.146 9.825 32.358 11.968Z" fill="#34B64A"/>
<path d="M22.116 20.262C22.116 20.262 17.337 18.574 14.896 18.818C14.896 18.818 18.801 21.38 19.187 21.34C19.187 21.34 22.095 21.726 22.116 20.262Z" fill="#009245"/>
<path d="M37.328 20.506C37.328 20.506 34.664 20.994 32.061 23.618C32.061 23.618 30.637 26.18 28.461 26.363C28.461 26.363 26.204 25.061 28.237 23.17C28.237 23.17 32.284 21.706 33.26 20.75C33.26 20.75 36.026 18.899 37.328 20.506Z" fill="#34B64A"/>
<path d="M28.237 26.79L31.41 24.695L33.037 22.722L35.823 21.075C35.823 21.075 39.158 20.363 39.911 21.787C39.911 21.787 38.508 20.445 36.86 21.38C36.86 21.38 34.623 23.434 34.399 25.854C34.399 25.854 31.125 30.287 29.315 28.213L28.237 26.79Z" fill="#009245"/>
<path d="M24.627 34.609C24.627 34.609 22.507 32.611 21.058 35.555C21.058 35.555 17.565 38.392 22.522 38.956H31.079C31.079 38.956 33.199 37.126 31.262 35.616C31.262 35.616 29.767 33.284 27.739 33.947C27.739 33.947 26.534 32.413 25.527 33.115C25.527 33.115 24.322 33.908 24.627 34.609Z" fill="#5F3D26"/>
<path d="M26.366 33.481C26.366 33.481 26.946 32.988 27.22 33.888C27.22 33.888 30.362 33.137 31.689 36.203C31.689 36.203 34.648 40.009 25.268 38.835C25.268 38.835 26.747 36.943 26.366 33.481Z" fill="#472817"/>
<path d="M28.482 11.808C28.482 11.808 25.623 12.187 26.441 13.221C26.441 13.221 27.878 12.479 28.482 11.808Z" fill="#3FD855"/>
<path d="M27.394 15.923C27.394 15.923 28.978 15.876 29.569 14.243C29.569 14.243 28.086 14.926 27.394 15.923Z" fill="#3FD855"/>
<path d="M15.14 25.916C15.14 25.916 19.899 33.145 23.895 29.942C23.895 29.942 17.092 26.07 15.14 25.916Z" fill="#009245"/>
<path d="M24.124 29.469C21.943 24.359 15.262 25.214 15.262 25.214L24.124 29.469Z" fill="#34B64A"/>
<path d="M22.854 20.03C17.722 14.856 14.489 18.741 14.489 18.741L19.878 19.265L22.854 20.03Z" fill="#34B64A"/>
<path d="M39.922 21.399L39.686 21.087C37.107 18.301 33.573 19.774 32.063 20.941C31.591 21.307 30.588 21.73 30.588 21.73C28.423 22.571 27.262 23.551 27.137 24.643C27.036 25.526 27.637 26.185 27.973 26.48C27.708 26.752 27.447 27.084 27.206 27.486C27.078 26.466 26.742 25.288 26.018 23.869C26.001 23.845 24.35 21.42 23.809 19.245C23.777 19.155 23.051 17.034 25.402 15.609C25.668 15.448 25.923 15.293 26.172 15.143C25.982 16.119 26.391 16.537 26.697 16.709C26.906 16.827 27.156 16.879 27.423 16.879C28.332 16.879 29.459 16.275 29.989 15.548C30.59 14.723 31.342 13.959 31.735 13.578C32.831 12.52 34.674 12.827 34.692 12.83C34.837 12.855 34.999 12.776 35.063 12.632C35.127 12.489 35.085 12.32 34.961 12.224C34.926 12.197 34.865 12.161 34.801 12.125C34.757 12.087 34.707 12.056 34.647 12.04C34.643 12.039 34.639 12.039 34.635 12.038C33.977 11.706 32.63 11.181 32.047 11.03C26.266 9.534 25.252 12.557 25.156 12.906C25.147 12.937 25.142 12.972 25.142 13.008C25.05 13.397 25.107 13.758 25.309 14.052C25.433 14.232 25.597 14.37 25.77 14.474C25.52 14.625 25.264 14.78 24.997 14.941C22.113 16.689 23.061 19.471 23.063 19.471C23.16 19.861 23.29 20.255 23.438 20.643C23.246 20.499 23.033 20.353 22.803 20.205C22.837 19.446 22.574 17.799 19.804 17.17C17.49 16.649 13.477 18.226 12.152 19.227C12.149 19.229 12.149 19.233 12.147 19.235C12.08 19.288 12.038 19.36 12.017 19.441C12.013 19.453 12.009 19.462 12.007 19.474C11.997 19.535 11.996 19.598 12.017 19.661C12.023 19.679 12.036 19.693 12.044 19.71C12.047 19.717 12.044 19.725 12.047 19.732C12.051 19.738 12.06 19.739 12.064 19.745C12.109 19.815 12.171 19.868 12.247 19.897C12.259 19.902 12.269 19.903 12.281 19.907C12.354 19.928 12.431 19.935 12.51 19.909C12.607 19.877 12.696 19.86 12.792 19.83C13.432 19.693 15.256 19.524 18.036 21.092C18.118 21.139 19.39 21.86 20.658 21.86C21.364 21.86 22.067 21.631 22.566 20.944C23.579 21.634 24.14 22.283 24.249 22.417C24.804 23.473 25.323 24.234 25.348 24.267C26.978 27.465 26.522 29.311 26.121 30.94C26.082 31.099 26.047 31.254 26.01 31.411C25.619 30.863 25.036 30.176 24.314 29.666C24.19 28.395 23.65 27.338 22.684 26.531C19.825 24.145 14.314 24.725 14.081 24.753C14.07 24.754 14.063 24.763 14.052 24.765C13.995 24.776 13.942 24.798 13.895 24.833C13.885 24.84 13.874 24.844 13.865 24.852C13.824 24.889 13.789 24.933 13.766 24.986C13.761 24.997 13.763 25.009 13.759 25.02C13.757 25.027 13.75 25.03 13.748 25.037C13.745 25.047 13.751 25.057 13.749 25.068C13.738 25.129 13.739 25.189 13.755 25.246C13.758 25.255 13.757 25.264 13.76 25.273C13.783 25.336 13.825 25.39 13.878 25.434C13.884 25.439 13.885 25.448 13.892 25.452C14.533 25.928 15.791 27.046 16.23 27.646C17.838 29.852 19.517 31.035 21.222 31.161C21.324 31.169 21.424 31.172 21.521 31.172C22.687 31.172 23.53 30.665 23.942 30.352C24.907 31.066 25.616 32.194 25.813 32.53C25.811 32.543 25.81 32.555 25.808 32.568C25.16 32.664 24.582 33.172 24.204 33.752C23.876 33.603 23.518 33.52 23.152 33.52C22.119 33.52 21.233 34.14 20.834 35.026C19.989 35.392 19.368 36.268 19.368 37.148C19.368 38.378 20.429 39.379 21.733 39.379H30.312C31.616 39.379 32.677 38.378 32.677 37.148C32.677 36.237 32.14 35.467 31.3 35.125C30.896 34.139 29.928 33.441 28.799 33.441C28.466 33.441 28.143 33.513 27.837 33.63C27.521 33.135 27.09 32.778 26.587 32.63C26.621 32.34 26.661 32.071 26.708 31.85C26.759 31.611 26.819 31.369 26.88 31.123C26.977 30.73 27.077 30.312 27.154 29.862C27.155 29.858 27.159 29.856 27.159 29.853C27.372 28.632 27.851 27.786 28.352 27.208C28.495 27.677 28.735 28.133 28.826 28.292C29.378 28.975 29.811 29.282 30.356 29.282C30.644 29.282 30.964 29.196 31.349 29.035C32.808 28.423 34.548 26.32 34.965 25.255C35.861 22.962 36.556 21.971 36.55 21.971C37.708 20.786 39.315 21.898 39.382 21.946C39.541 22.058 39.754 22.038 39.888 21.9C40.023 21.767 40.038 21.553 39.922 21.399ZM31.263 13.087C30.852 13.485 30.07 14.28 29.438 15.146C28.901 15.884 27.574 16.419 27.033 16.114C26.599 15.87 26.889 15.007 27.049 14.616C28.05 14.014 28.807 13.565 29.084 13.404C29.753 13.013 30.786 12.661 31.993 12.575C31.737 12.709 31.488 12.869 31.263 13.087ZM25.873 13.665C25.779 13.528 25.758 13.359 25.812 13.151C25.819 13.123 25.822 13.095 25.822 13.067C25.875 12.897 26.095 12.343 26.79 11.895C27.56 11.4 29.069 10.963 31.877 11.69C31.971 11.714 32.082 11.748 32.202 11.787C30.747 11.847 29.488 12.263 28.69 12.729C28.398 12.899 27.572 13.39 26.487 14.042C26.267 13.975 26.006 13.859 25.873 13.665ZM19.631 17.932C21.178 18.283 21.841 19.026 21.994 19.734C20.425 18.9 18.234 18.223 15.451 18.492C16.899 17.998 18.522 17.68 19.631 17.932ZM18.423 20.414C17.378 19.825 16.453 19.466 15.653 19.252C18.377 19.004 20.471 19.71 21.908 20.532C20.944 21.837 18.451 20.43 18.423 20.414ZM22.185 27.132C22.827 27.669 23.237 28.344 23.432 29.133C21.072 27.835 17.752 26.318 15.825 25.461C17.634 25.468 20.492 25.719 22.185 27.132ZM21.279 30.386C19.813 30.277 18.326 29.202 16.86 27.191C16.714 26.991 16.499 26.755 16.262 26.512C18.264 27.413 21.154 28.759 23.22 29.908C22.809 30.161 22.138 30.454 21.279 30.386ZM30.88 22.454C30.925 22.435 31.987 21.986 32.541 21.558C33.31 20.963 34.681 20.271 36.121 20.271C36.423 20.271 36.727 20.303 37.03 20.371C35.65 20.56 33.432 21.226 32.028 23.513C31.596 24.216 30.984 24.66 29.298 25.491C29.109 25.584 28.848 25.736 28.56 25.953C28.387 25.815 27.844 25.331 27.913 24.731C27.999 23.973 29.05 23.165 30.88 22.454ZM27.157 34.011C27.029 34.109 26.904 34.214 26.794 34.336C26.649 34.496 26.661 34.743 26.821 34.888C26.981 35.033 27.228 35.021 27.373 34.86C27.737 34.458 28.257 34.228 28.798 34.228C29.858 34.228 30.721 35.091 30.721 36.151C30.721 36.366 30.896 36.542 31.112 36.542C31.314 36.542 31.475 36.386 31.495 36.19C31.742 36.443 31.895 36.771 31.895 37.154C31.895 37.953 31.185 38.603 30.312 38.603H21.733C20.86 38.603 20.149 37.953 20.149 37.154C20.149 36.785 20.34 36.416 20.618 36.128C20.646 36.316 20.801 36.463 20.997 36.463C21.212 36.463 21.387 36.288 21.387 36.072C21.387 35.099 22.179 34.307 23.152 34.307C23.652 34.307 24.113 34.509 24.452 34.877C24.597 35.035 24.845 35.046 25.003 34.901C25.162 34.755 25.172 34.507 25.026 34.349C24.975 34.293 24.913 34.251 24.857 34.2C25.104 33.814 25.418 33.522 25.727 33.401C25.626 34.695 25.608 36.035 25.607 36.118C25.604 36.333 25.777 36.511 25.993 36.514C25.995 36.514 25.996 36.514 25.998 36.514C26.212 36.514 26.386 36.341 26.388 36.128C26.388 36.108 26.406 34.735 26.507 33.447C26.759 33.556 26.98 33.749 27.157 34.011ZM34.237 24.975C33.917 25.796 32.349 27.773 31.048 28.318C30.335 28.615 30.122 28.657 29.472 27.863C29.23 27.42 29.003 26.819 29.024 26.58C29.266 26.397 29.484 26.27 29.643 26.191C31.487 25.283 32.17 24.774 32.694 23.922C33.598 22.449 34.92 21.74 36.045 21.397C36.015 21.425 35.984 21.443 35.955 21.473C35.924 21.516 35.191 22.534 34.237 24.975Z" fill="black"/>
</svg>
