<?xml version="1.0" ?><svg id="Layer_1" style="enable-background:new 0 0 30 30;" version="1.1" viewBox="0 0 30 30" xml:space="preserve" xmlns="http://www.w3.org/2000/svg" xmlns:xlink="http://www.w3.org/1999/xlink"><style type="text/css">
	.st0{fill:#39B54A;}
	.st1{fill:#34B64A;}
	.st2{fill:#009245;}
	.st3{fill:#5F3D26;}
	.st4{fill:#472817;}
	.st5{fill:#3FD855;}
</style><g><path class="st0" d="M15.773,4.75c0,0,3.579-3.295,7.037-2.4c0,0-2.217,0.081-3.518,2.196c0,0-2.135,2.542-3.518,1.729   C15.773,6.276,14.959,5.279,15.773,4.75z"/><path class="st1" d="M21.358,1.968l-6.034,2.275c0,0-2.965-1.242,1.009-2.996C16.332,1.247,21.146-0.175,21.358,1.968z"/><path class="st2" d="M11.116,10.262c0,0-4.779-1.688-7.22-1.444c0,0,3.905,2.562,4.291,2.522   C8.187,11.339,11.095,11.726,11.116,10.262z"/><path class="st1" d="M26.328,10.506c0,0-2.664,0.488-5.267,3.112c0,0-1.424,2.562-3.6,2.745c0,0-2.257-1.302-0.224-3.193   c0,0,4.047-1.464,5.023-2.42C22.26,10.75,25.026,8.899,26.328,10.506z"/><path class="st2" d="M17.237,16.79l3.173-2.095l1.627-1.973l2.786-1.647c0,0,3.335-0.712,4.088,0.712c0,0-1.403-1.342-3.051-0.407   c0,0-2.237,2.054-2.461,4.474c0,0-3.274,4.433-5.084,2.359L17.237,16.79z"/><path class="st3" d="M13.627,24.609c0,0-2.12-1.998-3.569,0.946c0,0-3.493,2.837,1.464,3.401h8.557c0,0,2.12-1.83,0.183-3.34   c0,0-1.495-2.332-3.523-1.669c0,0-1.205-1.534-2.212-0.832C14.527,23.114,13.322,23.908,13.627,24.609z"/><path class="st4" d="M15.366,23.481c0,0,0.58-0.493,0.854,0.407c0,0,3.142-0.751,4.469,2.315c0,0,2.959,3.806-6.421,2.632   C14.268,28.834,15.747,26.943,15.366,23.481z"/><path class="st5" d="M17.482,1.808c0,0-2.859,0.379-2.041,1.413C15.441,3.22,16.878,2.479,17.482,1.808z"/><path class="st5" d="M16.394,5.923c0,0,1.584-0.047,2.175-1.68C18.569,4.243,17.086,4.926,16.394,5.923z"/><path class="st2" d="M4.14,15.916c0,0,4.759,7.229,8.755,4.026C12.895,19.942,6.092,16.07,4.14,15.916z"/><path class="st1" d="M13.124,19.469c-2.181-5.11-8.862-4.255-8.862-4.255L13.124,19.469z"/><path class="st1" d="M11.854,10.03C6.722,4.856,3.489,8.741,3.489,8.741l5.389,0.524L11.854,10.03z"/><path d="M28.922,11.399l-0.236-0.312c-2.579-2.786-6.113-1.313-7.623-0.146c-0.472,0.366-1.475,0.789-1.475,0.789   c-2.165,0.841-3.326,1.821-3.451,2.913c-0.101,0.883,0.5,1.542,0.836,1.837c-0.265,0.272-0.526,0.604-0.767,1.006   c-0.128-1.02-0.464-2.198-1.188-3.617c-0.017-0.024-1.668-2.449-2.209-4.624c-0.032-0.09-0.758-2.211,1.593-3.636   c0.266-0.161,0.521-0.316,0.77-0.466c-0.19,0.976,0.219,1.394,0.525,1.566c0.209,0.118,0.459,0.17,0.726,0.17   c0.909,0,2.036-0.604,2.566-1.331c0.601-0.825,1.353-1.589,1.746-1.97c1.096-1.058,2.939-0.751,2.957-0.748   c0.145,0.025,0.307-0.054,0.371-0.198c0.064-0.143,0.022-0.312-0.102-0.408c-0.035-0.027-0.096-0.063-0.16-0.099   c-0.044-0.038-0.094-0.069-0.154-0.085c-0.004-0.001-0.008-0.001-0.012-0.002c-0.658-0.332-2.005-0.857-2.588-1.008   c-5.781-1.496-6.795,1.527-6.891,1.876c-0.009,0.031-0.014,0.066-0.014,0.102c-0.092,0.389-0.035,0.75,0.167,1.044   c0.124,0.18,0.288,0.318,0.461,0.422c-0.25,0.151-0.506,0.306-0.773,0.467c-2.884,1.748-1.936,4.53-1.934,4.53   c0.097,0.39,0.227,0.784,0.375,1.172c-0.192-0.144-0.405-0.29-0.635-0.438c0.034-0.759-0.229-2.406-2.999-3.035   C6.49,6.649,2.477,8.226,1.152,9.227C1.149,9.229,1.149,9.233,1.147,9.235C1.08,9.288,1.038,9.36,1.017,9.441   C1.013,9.453,1.009,9.462,1.007,9.474C0.997,9.535,0.996,9.598,1.017,9.661C1.023,9.679,1.036,9.693,1.044,9.71   c0.003,0.007,0,0.015,0.003,0.022C1.051,9.738,1.06,9.739,1.064,9.745c0.045,0.07,0.107,0.123,0.183,0.152   c0.012,0.005,0.022,0.006,0.034,0.01C1.354,9.928,1.431,9.935,1.51,9.909C1.607,9.877,1.696,9.86,1.792,9.83   c0.64-0.137,2.464-0.306,5.244,1.262c0.082,0.047,1.354,0.768,2.622,0.768c0.706,0,1.409-0.229,1.908-0.916   c1.013,0.69,1.574,1.339,1.683,1.473c0.555,1.056,1.074,1.817,1.099,1.85c1.63,3.198,1.174,5.044,0.773,6.673   c-0.039,0.159-0.074,0.314-0.111,0.471c-0.391-0.548-0.974-1.235-1.696-1.745c-0.124-1.271-0.664-2.328-1.63-3.135   c-2.859-2.386-8.37-1.806-8.603-1.778c-0.011,0.001-0.018,0.01-0.029,0.012c-0.057,0.011-0.11,0.033-0.157,0.068   c-0.01,0.007-0.021,0.011-0.03,0.019c-0.041,0.037-0.076,0.081-0.099,0.134c-0.005,0.011-0.003,0.023-0.007,0.034   c-0.002,0.007-0.009,0.01-0.011,0.017c-0.003,0.01,0.003,0.02,0.001,0.031c-0.011,0.061-0.01,0.121,0.006,0.178   c0.003,0.009,0.002,0.018,0.005,0.027c0.023,0.063,0.065,0.117,0.118,0.161c0.006,0.005,0.007,0.014,0.014,0.018   c0.641,0.476,1.899,1.594,2.338,2.194c1.608,2.206,3.287,3.389,4.992,3.515c0.102,0.008,0.202,0.011,0.299,0.011   c1.166,0,2.009-0.507,2.421-0.82c0.965,0.714,1.674,1.842,1.871,2.178c-0.002,0.013-0.003,0.025-0.005,0.038   c-0.648,0.096-1.226,0.604-1.604,1.184c-0.328-0.149-0.686-0.232-1.052-0.232c-1.033,0-1.919,0.62-2.318,1.506   c-0.845,0.366-1.466,1.242-1.466,2.122c0,1.23,1.061,2.231,2.365,2.231h8.579c1.304,0,2.365-1.001,2.365-2.231   c0-0.911-0.537-1.681-1.377-2.023c-0.404-0.986-1.372-1.684-2.501-1.684c-0.333,0-0.656,0.072-0.962,0.189   c-0.316-0.495-0.747-0.852-1.25-1c0.034-0.29,0.074-0.559,0.121-0.78c0.051-0.239,0.111-0.481,0.172-0.727   c0.097-0.393,0.197-0.811,0.274-1.261c0.001-0.004,0.005-0.006,0.005-0.009c0.213-1.221,0.692-2.067,1.193-2.645   c0.143,0.469,0.383,0.925,0.474,1.084c0.552,0.683,0.985,0.99,1.53,0.99c0.288,0,0.608-0.086,0.993-0.247   c1.459-0.612,3.199-2.715,3.616-3.78c0.896-2.293,1.591-3.284,1.585-3.284c1.158-1.185,2.765-0.073,2.832-0.025   c0.159,0.112,0.372,0.092,0.506-0.046C29.023,11.767,29.038,11.553,28.922,11.399z M20.263,3.087   c-0.411,0.398-1.193,1.193-1.825,2.059c-0.537,0.738-1.864,1.273-2.405,0.968c-0.434-0.244-0.144-1.107,0.016-1.498   c1.001-0.602,1.758-1.051,2.035-1.212c0.669-0.391,1.702-0.743,2.909-0.829C20.737,2.709,20.488,2.869,20.263,3.087z M14.873,3.665   c-0.094-0.137-0.115-0.306-0.061-0.514c0.007-0.028,0.01-0.056,0.01-0.084c0.053-0.17,0.273-0.724,0.968-1.172   c0.77-0.495,2.279-0.932,5.087-0.205c0.094,0.024,0.205,0.058,0.325,0.097c-1.455,0.06-2.714,0.476-3.512,0.942   c-0.292,0.17-1.118,0.661-2.203,1.313C15.267,3.975,15.006,3.859,14.873,3.665z M8.631,7.932c1.547,0.351,2.21,1.094,2.363,1.802   C9.425,8.9,7.234,8.223,4.451,8.492C5.899,7.998,7.522,7.68,8.631,7.932z M7.423,10.414C6.378,9.825,5.453,9.466,4.653,9.252   c2.724-0.248,4.818,0.458,6.255,1.28C9.944,11.837,7.451,10.43,7.423,10.414z M11.185,17.132c0.642,0.537,1.052,1.212,1.247,2.001   c-2.36-1.298-5.68-2.815-7.607-3.672C6.634,15.468,9.492,15.719,11.185,17.132z M10.279,20.386   c-1.466-0.109-2.953-1.184-4.419-3.195c-0.146-0.2-0.361-0.436-0.598-0.679c2.002,0.901,4.892,2.247,6.958,3.396   C11.809,20.161,11.138,20.454,10.279,20.386z M19.88,12.454c0.045-0.019,1.107-0.468,1.661-0.896   c0.769-0.595,2.14-1.287,3.58-1.287c0.302,0,0.606,0.032,0.909,0.1c-1.38,0.189-3.598,0.855-5.002,3.142   c-0.432,0.703-1.044,1.147-2.73,1.978c-0.189,0.093-0.45,0.245-0.738,0.462c-0.173-0.138-0.716-0.622-0.647-1.222   C16.999,13.973,18.05,13.165,19.88,12.454z M16.157,24.011c-0.128,0.098-0.253,0.203-0.363,0.325   c-0.145,0.16-0.133,0.407,0.027,0.552c0.16,0.145,0.407,0.133,0.552-0.028c0.364-0.402,0.884-0.632,1.425-0.632   c1.06,0,1.923,0.863,1.923,1.923c0,0.215,0.175,0.391,0.391,0.391c0.202,0,0.363-0.156,0.383-0.352   c0.247,0.253,0.4,0.581,0.4,0.964c0,0.799-0.71,1.449-1.583,1.449h-8.579c-0.873,0-1.584-0.65-1.584-1.449   c0-0.369,0.191-0.738,0.469-1.026c0.028,0.188,0.183,0.335,0.379,0.335c0.215,0,0.39-0.175,0.39-0.391   c0-0.973,0.792-1.765,1.765-1.765c0.5,0,0.961,0.202,1.3,0.57c0.145,0.158,0.393,0.169,0.551,0.024   c0.159-0.146,0.169-0.394,0.023-0.552c-0.051-0.056-0.113-0.098-0.169-0.149c0.247-0.386,0.561-0.678,0.87-0.799   c-0.101,1.294-0.119,2.634-0.12,2.717c-0.003,0.215,0.17,0.393,0.386,0.396c0.002,0,0.003,0,0.005,0   c0.214,0,0.388-0.173,0.39-0.386c0-0.02,0.018-1.393,0.119-2.681C15.759,23.556,15.98,23.749,16.157,24.011z M23.237,14.975   c-0.32,0.821-1.888,2.798-3.189,3.343c-0.713,0.297-0.926,0.339-1.576-0.455c-0.242-0.443-0.469-1.044-0.448-1.283   c0.242-0.183,0.46-0.31,0.619-0.389c1.844-0.908,2.527-1.417,3.051-2.269c0.904-1.473,2.226-2.182,3.351-2.525   c-0.03,0.028-0.061,0.046-0.09,0.076C24.924,11.516,24.191,12.534,23.237,14.975z"/></g></svg>